<svg width="119" height="31" viewBox="0 0 119 31" fill="none" xmlns="http://www.w3.org/2000/svg">
<path d="M1.67431 10.411V21.579H7.59431V19.803H3.91431V10.411H1.67431ZM12.8261 14.411C13.9781 14.411 14.9061 15.147 14.9381 16.315H10.7301C10.9061 15.099 11.7541 14.411 12.8261 14.411ZM17.0341 18.795H14.6181C14.3301 19.387 13.8021 19.867 12.8421 19.867C11.7221 19.867 10.8261 19.131 10.7141 17.819H17.1941C17.2421 17.531 17.2581 17.243 17.2581 16.955C17.2581 14.315 15.4501 12.571 12.8901 12.571C10.2661 12.571 8.44206 14.347 8.44206 17.147C8.44206 19.931 10.3141 21.723 12.8901 21.723C15.0821 21.723 16.5541 20.427 17.0341 18.795ZM18.3171 17.115C18.3171 19.883 20.1091 21.723 22.3491 21.723C23.7571 21.723 24.7651 21.051 25.2931 20.283V21.579H27.5491V12.715H25.2931V13.979C24.7651 13.243 23.7891 12.571 22.3651 12.571C20.1091 12.571 18.3171 14.347 18.3171 17.115ZM25.2931 17.147C25.2931 18.827 24.1731 19.755 22.9411 19.755C21.7411 19.755 20.6051 18.795 20.6051 17.115C20.6051 15.435 21.7411 14.539 22.9411 14.539C24.1731 14.539 25.2931 15.467 25.2931 17.147ZM31.9768 17.163C31.9768 15.451 32.7768 14.939 34.1048 14.939H34.6968V12.587C33.4648 12.587 32.5368 13.179 31.9768 14.091V12.715H29.7368V21.579H31.9768V17.163ZM42.4136 21.579H44.6536V16.379C44.6536 13.931 43.1816 12.587 41.1176 12.587C39.9816 12.587 39.0216 13.067 38.4456 13.819V12.715H36.2056V21.579H38.4456V16.683C38.4456 15.259 39.2296 14.491 40.4456 14.491C41.6296 14.491 42.4136 15.259 42.4136 16.683V21.579ZM50.5962 21.579H52.8362V14.315L55.8442 21.579H57.5402L60.5322 14.315V21.579H62.7722V10.411H60.2442L56.6922 18.715L53.1402 10.411H50.5962V21.579ZM73.5468 17.147C73.5468 14.347 71.5468 12.571 68.9868 12.571C66.4268 12.571 64.4268 14.347 64.4268 17.147C64.4268 19.931 66.3628 21.723 68.9228 21.723C71.4988 21.723 73.5468 19.931 73.5468 17.147ZM66.6988 17.147C66.6988 15.371 67.7708 14.523 68.9548 14.523C70.1388 14.523 71.2428 15.371 71.2428 17.147C71.2428 18.907 70.1068 19.771 68.9228 19.771C67.7228 19.771 66.6988 18.907 66.6988 17.147ZM77.4299 17.163C77.4299 15.451 78.2299 14.939 79.5579 14.939H80.1499V12.587C78.9179 12.587 77.9899 13.179 77.4299 14.091V12.715H75.1899V21.579H77.4299V17.163ZM85.4667 14.411C86.6187 14.411 87.5467 15.147 87.5787 16.315H83.3707C83.5467 15.099 84.3947 14.411 85.4667 14.411ZM89.6747 18.795H87.2587C86.9707 19.387 86.4427 19.867 85.4827 19.867C84.3627 19.867 83.4667 19.131 83.3547 17.819H89.8347C89.8827 17.531 89.8987 17.243 89.8987 16.955C89.8987 14.315 88.0907 12.571 85.5307 12.571C82.9067 12.571 81.0827 14.347 81.0827 17.147C81.0827 19.931 82.9547 21.723 85.5307 21.723C87.7227 21.723 89.1947 20.427 89.6747 18.795Z" fill="#009379"/>
<path d="M101.625 15.579H115.375" stroke="#009379" stroke-width="1.5" stroke-linecap="round" stroke-linejoin="round"/>
<path d="M109.75 9.95398L115.375 15.579L109.75 21.204" stroke="#009379" stroke-width="1.5" stroke-linecap="round" stroke-linejoin="round"/>
</svg>
